<?xml version="1.0" encoding="UTF-8" standalone="no"?>
<!-- Created with Inkscape (http://www.inkscape.org/) -->

<svg
   xmlns:dc="http://purl.org/dc/elements/1.1/"
   xmlns:cc="http://creativecommons.org/ns#"
   xmlns:rdf="http://www.w3.org/1999/02/22-rdf-syntax-ns#"
   xmlns:svg="http://www.w3.org/2000/svg"
   xmlns="http://www.w3.org/2000/svg"
   xmlns:sodipodi="http://sodipodi.sourceforge.net/DTD/sodipodi-0.dtd"
   xmlns:inkscape="http://www.inkscape.org/namespaces/inkscape"
   version="1.1"
   id="svg16"
   width="163.54445"
   height="78.097099"
   viewBox="0 0 163.54445 78.097099"
   sodipodi:docname="Logo1.svg"
   inkscape:version="0.92.4 (5da689c313, 2019-01-14)">
  <metadata
     id="metadata22">
    <rdf:RDF>
      <cc:Work
         rdf:about="">
        <dc:format>image/svg+xml</dc:format>
        <dc:type
           rdf:resource="http://purl.org/dc/dcmitype/StillImage" />
        <dc:title></dc:title>
      </cc:Work>
    </rdf:RDF>
  </metadata>
  <defs
     id="defs20" />
  <sodipodi:namedview
     pagecolor="#ffffff"
     bordercolor="#666666"
     borderopacity="0.8"
     objecttolerance="10"
     gridtolerance="10"
     guidetolerance="10"
     inkscape:pageopacity="0"
     inkscape:pageshadow="2"
     inkscape:window-width="1920"
     inkscape:window-height="1012"
     id="namedview18"
     showgrid="false"
     inkscape:zoom="2.36"
     inkscape:cx="-70.241573"
     inkscape:cy="139.07713"
     inkscape:window-x="-9"
     inkscape:window-y="-9"
     inkscape:window-maximized="1"
     inkscape:current-layer="g911"
     inkscape:pagecheckerboard="true"
     showborder="true"
     inkscape:showpageshadow="false"
     fit-margin-top="0"
     fit-margin-left="0"
     fit-margin-right="0"
     fit-margin-bottom="0" />
  <g
     id="g911"
     transform="matrix(0.89544759,0,0,0.86029214,-3.4586251,56.770394)">
    <g
       transform="translate(0,-84)"
       id="g6034">
      <path
         style="fill:none;fill-opacity:1;stroke:#000000;stroke-width:1px;stroke-linecap:butt;stroke-linejoin:miter;stroke-opacity:1"
         d="M 4.344512,38.504002 12.883725,69.514829 41.647391,90.638146 71.309921,87.192499 23.969722,64.571074 Z"
         id="path3735"
         inkscape:connector-curvature="0" />
      <path
         style="fill:none;stroke:#000000;stroke-width:1px;stroke-linecap:butt;stroke-linejoin:miter;stroke-opacity:1"
         d="m 29.34322,104.87288 3.072034,-1.69491 33.050848,1.37711 34.004237,-15.995758 -59.63983,7.415254 -3.283899,2.86017 -8.156779,2.648304 z"
         id="path3737"
         inkscape:connector-curvature="0" />
      <path
         style="fill:none;fill-opacity:1;fill-rule:evenodd;stroke:#000000;stroke-width:1px;stroke-linecap:butt;stroke-linejoin:miter;stroke-opacity:1"
         d="M 74.756545,86.497418 138.9119,57.43413 186.09788,18.395575 148.64519,69.930476 118.29049,82.79291 Z"
         id="path3741"
         inkscape:connector-curvature="0"
         sodipodi:nodetypes="cccccc" />
      <path
         style="fill:none;stroke:#000000;stroke-width:1px;stroke-linecap:butt;stroke-linejoin:miter;stroke-opacity:1"
         d="m 73.654976,103.97759 75.860364,-28.458872 22.172,-11.98486 -21.57275,21.872362 -45.66389,2.998004 z"
         id="path3745"
         inkscape:connector-curvature="0"
         sodipodi:nodetypes="cccccc" />
      <text
         xml:space="preserve"
         style="font-style:normal;font-variant:normal;font-weight:normal;font-stretch:normal;font-size:40px;line-height:1.25;font-family:'BIZ UDGothic';-inkscape-font-specification:'BIZ UDGothic';letter-spacing:0px;word-spacing:0px;fill:#000000;fill-opacity:1;stroke:none"
         x="99.474342"
         y="106.21846"
         id="text3749"><tspan
           sodipodi:role="line"
           id="tspan3747"
           x="99.474342"
           y="106.21846"
           style="font-style:normal;font-variant:normal;font-weight:normal;font-stretch:normal;font-size:13.33333302px;font-family:'Lucida Sans Unicode';-inkscape-font-specification:'Lucida Sans Unicode';opacity:0">FlyAir</tspan></text>
      <path
         style="opacity:0;fill:#f9f9f9;stroke-width:0.29962152"
         d="M 30.831454,82.100103 C 23.168634,76.466455 16.789327,71.75552 16.655217,71.63136 16.418513,71.412219 8.9345983,44.582305 9.0718813,44.445022 c 0.037687,-0.03769 4.0073217,5.151982 8.8214097,11.532597 l 8.752887,11.601121 22.623128,10.784235 c 12.442721,5.931331 22.519118,10.815995 22.391995,10.854808 -0.229432,0.07005 -21.654777,2.577506 -25.099717,2.937471 l -1.797729,0.187848 z"
         id="path3751"
         inkscape:connector-curvature="0" />
      <path
         style="opacity:0;fill:#f9f9f9;stroke-width:0.29962152"
         d="m 79.849535,84.720698 c 0.0824,-0.0883 9.722718,-4.335479 21.422935,-9.438177 C 112.97269,70.17982 126.45566,64.2917 131.23462,62.19781 l 8.68903,-3.807072 19.62521,-17.30838 c 10.79386,-9.51961 19.67143,-17.271122 19.72793,-17.225583 0.0565,0.04554 -7.38453,10.383082 -16.53562,22.972318 l -16.63835,22.889519 -23.76347,7.434257 -23.76347,7.434258 -9.438078,0.147057 c -5.190943,0.08088 -9.370663,0.07481 -9.288267,-0.01348 z"
         id="path3753"
         inkscape:connector-curvature="0" />
      <path
         style="opacity:0;fill:#f9f9f9;stroke-width:0.29962152"
         d="m 122.39579,85.137737 c 0.24719,-0.137643 5.97745,-1.561134 12.73391,-3.163314 l 12.28449,-2.913055 9.91519,-5.666409 c 5.45335,-3.116525 10.03671,-5.666409 10.18523,-5.666409 0.14851,0 -3.70573,3.977476 -8.56499,8.838835 l -8.83503,8.838835 -14.08412,-0.0091 c -7.74626,-0.005 -13.88187,-0.121728 -13.63468,-0.259372 z"
         id="path3755"
         inkscape:connector-curvature="0" />
      <path
         style="opacity:0;fill:#f9f9f9;stroke-width:0.29962152"
         d="m 48.089654,103.21048 -15.73013,-0.69657 -1.257414,0.65053 c -1.389621,0.71892 -1.422856,0.71049 -1.696172,-0.43042 -0.189218,-0.78986 -0.146353,-0.81428 3.628214,-2.06658 3.216741,-1.067235 4.079825,-1.49054 5.467613,-2.681623 l 1.647919,-1.414344 27.063436,-3.352902 c 14.884891,-1.844096 27.18238,-3.311348 27.327754,-3.26056 0.452308,0.158019 -29.34818,14.026939 -30.053983,13.986899 -0.366908,-0.0208 -7.745666,-0.35131 -16.397237,-0.73443 z"
         id="path3757"
         inkscape:connector-curvature="0" />
    </g>
    <path
       inkscape:connector-curvature="0"
       id="path19"
       d="M 27.537665,-4.516903 13.427539,-14.904117 9.7680358,-28.204772 c -2.012727,-7.31536 -3.606322,-13.353836 -3.5413225,-13.418836 0.064999,-0.065 3.9389797,4.95089 8.6088447,11.146422 4.669864,6.195531 8.77037,11.444259 9.112234,11.663841 0.341865,0.219582 10.567524,5.14868 22.723687,10.953552 12.156163,5.804871 22.06586,10.590566 22.021552,10.634877 -0.04431,0.04431 -4.866734,0.636058 -10.716497,1.314994 C 52.126769,4.769018 46.353329,5.454117 45.146663,5.612524 43.939997,5.770931 42.659115,5.893737 42.300259,5.885425 41.92995,5.876825 35.545894,1.378378 27.537665,-4.516903 Z"
       style="fill:none;stroke-width:0.29962152" />
    <path
       inkscape:connector-curvature="0"
       id="path21"
       d="M 79.400102,1.113887 C 79.729686,0.974 93.347484,-5.193805 109.66188,-12.592344 l 29.66253,-13.451889 20.91881,-17.315326 c 11.50535,-9.523429 20.98958,-17.244565 21.07606,-17.158078 0.0865,0.08649 -7.32599,10.457188 -16.47218,23.046003 l -16.62943,22.888754 -15.05626,6.377186 -15.05625,6.377187 -18.753289,1.61152 c -10.314305,0.886334 -19.157772,1.6056 -19.652147,1.59837 -0.767945,-0.01124 -0.811585,-0.0502 -0.299622,-0.267496 z"
       style="fill:none;stroke-width:0.29962152" />
    <path
       inkscape:connector-curvature="0"
       id="path23"
       d="M 48.089653,19.21048 32.359524,18.5139 31.10211,19.16443 c -1.389621,0.71893 -1.422857,0.71049 -1.696172,-0.43042 -0.189219,-0.78986 -0.146354,-0.81427 3.628214,-2.06658 3.21674,-1.067229 4.079825,-1.490534 5.467613,-2.681618 L 40.149683,12.571469 67.21312,9.218567 C 82.098011,7.374471 94.3955,5.907219 94.540873,5.958007 94.993182,6.116026 65.192694,19.98494 64.48689,19.9449 64.119983,19.9241 56.741225,19.5936 48.089653,19.21048 Z"
       style="fill:none;stroke-width:0.29962152" />
    <path
       inkscape:connector-curvature="0"
       id="path25"
       d="m 73.857104,19.86214 c 0,-0.23461 6.431216,-3.64308 15.27746,-8.096876 l 15.277456,-7.691711 6.52001,-0.449069 6.52,-0.44907 15.96753,-5.987812 15.96753,-5.987812 10.76724,-5.830822 c 5.92198,-3.206951 10.93868,-5.865496 11.14822,-5.907878 0.20954,-0.04238 0.38098,0.07502 0.38098,0.260887 0,0.185868 -4.82357,5.214816 -10.71904,11.175438 l -10.71905,10.837496 -5.90995,0.412326 c -3.25047,0.226779 -10.56157,0.707908 -16.24689,1.069175 l -10.33694,0.656849 -19.625213,7.33711 c -10.793865,4.03541 -20.67014,7.724069 -21.947276,8.197019 -1.727102,0.63958 -2.322067,0.7561 -2.322067,0.45475 z M 100.2238,9.65432 c 7.33323,-2.748328 13.46798,-5.137101 13.63278,-5.308384 0.20665,-0.214788 -0.21174,-0.257031 -1.3483,-0.136135 -0.90636,0.09641 -3.06363,0.26289 -4.79394,0.369956 l -3.14603,0.194667 -10.636564,5.34341 c -5.85011,2.938874 -10.906224,5.552337 -11.235807,5.807699 -0.712302,0.551887 0.04624,0.280497 17.527861,-6.271213 z m 35.65496,-7.664813 13.9324,-0.916357 9.66409,-9.64564 c 5.31525,-5.305101 9.54023,-9.686926 9.38885,-9.737387 -0.15138,-0.05046 -4.55003,2.221828 -9.77478,5.049532 l -9.49954,5.141279 -13.97152,5.239502 c -7.68434,2.881726 -14.17377,5.357888 -14.42096,5.502583 -0.64759,0.379079 -0.84094,0.387422 14.68146,-0.633512 z"
       style="fill:#483e37;stroke-width:0.29962152" />
    <path
       inkscape:connector-curvature="0"
       id="path27"
       d="m 75.221469,19.12295 c 0.503213,-0.30687 3.604295,-1.94975 6.891295,-3.650852 3.286999,-1.701105 6.021585,-3.203155 6.076858,-3.337889 0.05527,-0.134737 0.22381,-0.168762 0.374527,-0.07561 0.150717,0.09315 0.274031,0.01862 0.274031,-0.165627 0,-0.184244 0.13483,-0.251658 0.299621,-0.149811 0.164792,0.101847 0.299622,0.03443 0.299622,-0.149811 0,-0.184243 0.13483,-0.251658 0.299621,-0.149811 0.164792,0.101848 0.299622,0.03443 0.299622,-0.14981 0,-0.184244 0.13483,-0.251658 0.299621,-0.149811 0.164792,0.101847 0.299622,0.03443 0.299622,-0.149811 0,-0.184243 0.13483,-0.251658 0.299621,-0.149811 0.164792,0.101848 0.299622,0.03443 0.299622,-0.14981 0,-0.184244 0.13483,-0.251659 0.299622,-0.149811 0.164791,0.101847 0.299621,0.01993 0.299621,-0.182065 0,-0.201984 0.08457,-0.282669 0.187938,-0.179303 0.103365,0.103364 3.001283,-1.228488 6.439818,-2.959674 5.932469,-2.9868 6.362969,-3.153873 8.426179,-3.270192 1.19587,-0.06742 3.18552,-0.199808 4.42146,-0.294195 1.23594,-0.09439 3.24348,-0.2242 4.4612,-0.288474 1.2436,-0.06564 2.30891,-0.270356 2.43048,-0.467055 0.11903,-0.192607 0.30472,-0.328458 0.41263,-0.301892 0.45384,0.111725 1.98396,-0.36658 1.98396,-0.62017 0,-0.151698 0.10112,-0.25013 0.22472,-0.218737 0.46607,0.118382 2.17225,-0.415818 2.17225,-0.680127 0,-0.151699 0.10113,-0.250131 0.22472,-0.218738 0.46608,0.118382 2.17226,-0.415818 2.17226,-0.680127 0,-0.151698 0.10112,-0.25013 0.22471,-0.218737 0.46608,0.118382 2.17226,-0.415818 2.17226,-0.680128 0,-0.151698 0.10112,-0.25013 0.22471,-0.218737 0.46608,0.118382 2.17226,-0.415818 2.17226,-0.680127 0,-0.151698 0.10112,-0.25013 0.22472,-0.218738 0.46607,0.118383 2.17225,-0.415817 2.17225,-0.680127 0,-0.151698 0.10112,-0.25013 0.22472,-0.218737 0.46607,0.118382 2.17225,-0.415818 2.17225,-0.680127 0,-0.151699 0.10113,-0.250131 0.22472,-0.218738 0.46608,0.118383 2.17226,-0.415817 2.17226,-0.680127 0,-0.151698 0.10112,-0.25013 0.22471,-0.218737 0.46608,0.118382 2.17226,-0.415818 2.17226,-0.680127 0,-0.151699 0.10112,-0.250131 0.22471,-0.218738 0.46608,0.118382 2.17226,-0.415818 2.17226,-0.680127 0,-0.151698 0.10112,-0.25013 0.22472,-0.218737 0.46607,0.118382 2.17225,-0.415818 2.17225,-0.680127 0,-0.151699 0.10112,-0.250131 0.22472,-0.218738 0.40422,0.102673 2.17225,-0.398996 2.17225,-0.616366 0,-0.11663 0.29029,-0.233921 0.64509,-0.260647 0.84623,-0.06374 4.44848,-1.916149 4.44848,-2.287563 0,-0.158517 0.088,-0.200209 0.19556,-0.09265 0.21292,0.212918 3.41195,-1.504147 3.76984,-2.023442 0.12107,-0.175674 0.22219,-0.217132 0.22471,-0.09213 0.006,0.273697 3.35704,-1.561405 3.67037,-2.009688 0.12107,-0.173217 0.22219,-0.208134 0.22471,-0.07759 0.005,0.277757 2.74694,-1.25863 3.07112,-1.721068 0.12108,-0.172704 0.2222,-0.20299 0.22472,-0.0673 0.005,0.288797 3.34596,-1.553945 3.67036,-2.02465 0.12108,-0.175673 0.2222,-0.209265 0.22472,-0.07465 0.002,0.134617 0.90582,-0.233798 2.00732,-0.8187 1.10151,-0.584901 2.06321,-1.002985 2.13712,-0.929076 0.0739,0.07391 -1.64815,1.947511 -3.82679,4.163559 -2.17865,2.216047 -3.91652,4.074532 -3.86194,4.129966 0.0546,0.05543 -3.03204,3.184444 -6.85917,6.953357 l -6.95841,6.852567 -2.02824,0.0897 c -1.11553,0.04934 -3.10688,0.165731 -4.42521,0.258655 -1.31834,0.09292 -3.4082,0.232059 -4.64414,0.309189 -1.23594,0.07713 -3.3258,0.216271 -4.64413,0.309202 -2.26242,0.15948 -3.41784,0.234581 -8.83883,0.574516 -7.95782,0.499012 -7.95944,0.499224 -9.77274,1.284389 -0.6399,0.277077 -1.29828,0.533965 -1.46307,0.570862 -0.16479,0.0369 -0.70411,0.235911 -1.19849,0.442255 -0.49437,0.206344 -1.145,0.422685 -1.44584,0.480759 -0.30084,0.05807 -0.84016,0.266824 -1.19849,0.46389 -0.35832,0.197065 -0.89764,0.39931 -1.19848,0.449432 -0.30084,0.05012 -0.84016,0.252367 -1.19849,0.449432 -0.35833,0.197066 -0.89765,0.39931 -1.19849,0.449432 -0.30083,0.05012 -0.84015,0.252367 -1.19848,0.449433 -0.35833,0.197065 -0.89765,0.39931 -1.19849,0.449432 -0.30084,0.05012 -0.84015,0.252367 -1.19848,0.449432 -0.35833,0.197067 -0.89765,0.399311 -1.19849,0.449432 -0.30084,0.05012 -0.84016,0.252368 -1.19849,0.449432 -0.35832,0.197068 -0.897643,0.399312 -1.198482,0.449433 -0.300838,0.05012 -0.840157,0.252368 -1.198486,0.449432 -0.358329,0.197067 -0.897648,0.399312 -1.198486,0.449432 -0.300838,0.05012 -0.840157,0.252368 -1.198486,0.449433 -0.358329,0.197067 -0.897648,0.399311 -1.198486,0.449432 -0.300838,0.05012 -0.840157,0.252368 -1.198486,0.449432 -0.358329,0.197067 -0.897648,0.399312 -1.198486,0.449432 -0.300838,0.05012 -0.840157,0.252369 -1.198486,0.449433 -0.358329,0.197067 -0.897648,0.399311 -1.198486,0.449432 -0.300839,0.05012 -0.840157,0.252368 -1.198486,0.449432 -0.358329,0.197067 -0.897648,0.399312 -1.198486,0.449432 -0.300839,0.05012 -0.840158,0.254181 -1.198487,0.453466 -0.358329,0.199284 -0.718922,0.374724 -0.801318,0.389867 -1.214962,0.223297 -2.09735,0.545797 -2.09735,0.766567 0,0.1517 -0.101123,0.25013 -0.224717,0.21874 -0.466075,-0.11839 -2.172256,0.41581 -2.172256,0.68013 0,0.15169 -0.101122,0.25013 -0.224716,0.21873 -0.510828,-0.12975 -2.172256,0.42863 -2.172256,0.73006 0,0.17917 -0.0833,0.24246 -0.185113,0.14064 -0.101812,-0.10181 -0.877082,0.0779 -1.722823,0.39935 -1.944941,0.73924 -2.713942,0.75166 -1.521643,0.0246 z m 8.728356,-3.380699 c 0.463905,-0.189981 1.089605,-0.392932 1.390443,-0.451008 0.300838,-0.05807 0.840157,-0.268638 1.198486,-0.467922 0.358329,-0.199284 0.718922,-0.374725 0.801318,-0.389867 1.214962,-0.22329 2.097351,-0.545794 2.097351,-0.766564 0,-0.151696 0.101122,-0.25013 0.224716,-0.218736 0.466075,0.118384 2.172256,-0.415818 2.172256,-0.680129 0,-0.151695 0.101122,-0.25013 0.224716,-0.218735 0.466076,0.118383 2.172256,-0.415818 2.172256,-0.680129 0,-0.151696 0.101122,-0.25013 0.224716,-0.218736 0.466076,0.118384 2.172256,-0.415818 2.172256,-0.680129 0,-0.151695 0.101123,-0.25013 0.224716,-0.218736 0.466076,0.118384 2.172256,-0.415817 2.172256,-0.680128 0,-0.151696 0.101123,-0.25013 0.224717,-0.218736 0.466075,0.118383 2.172252,-0.415818 2.172252,-0.680127 0,-0.151699 0.10113,-0.250131 0.22472,-0.218738 0.48227,0.122496 2.17226,-0.42039 2.17226,-0.69781 0,-0.161424 0.10245,-0.230175 0.22768,-0.152781 0.12522,0.07739 0.69825,-0.06939 1.27339,-0.326185 0.57514,-0.256796 1.29185,-0.515114 1.59269,-0.574041 0.30084,-0.05893 0.84016,-0.268484 1.19848,-0.465682 0.35833,-0.197198 0.78634,-0.385346 0.95113,-0.418106 0.16479,-0.03276 0.70411,-0.21726 1.19849,-0.41 0.49437,-0.192739 0.96628,-0.355413 1.04867,-0.361497 0.28997,-0.02141 2.39698,-1.159152 2.39698,-1.294316 0,-0.163904 -3.04551,0.0072 -9.21337,0.517523 -0.20599,0.01704 -0.37452,0.151305 -0.37452,0.298358 0,0.147051 -0.13483,0.184038 -0.29962,0.08219 -0.1648,-0.101848 -0.29963,-0.03443 -0.29963,0.14981 0,0.184243 -0.13483,0.251658 -0.29962,0.149811 -0.16479,-0.101847 -0.29962,-0.03443 -0.29962,0.149811 0,0.184243 -0.13483,0.251658 -0.29962,0.149811 -0.16479,-0.101848 -0.29962,-0.03443 -0.29962,0.14981 0,0.184243 -0.13483,0.251658 -0.29962,0.149811 -0.1648,-0.101847 -0.29962,-0.03443 -0.29962,0.149811 0,0.184243 -0.13483,0.251658 -0.29963,0.149811 -0.16479,-0.101847 -0.29962,-0.03443 -0.29962,0.14981 0,0.184243 -0.13483,0.251658 -0.29962,0.149811 -0.16479,-0.101847 -0.29962,-0.03443 -0.29962,0.149811 0,0.184243 -0.13483,0.251658 -0.29962,0.149811 -0.16479,-0.101847 -0.299624,-0.03443 -0.299624,0.14981 0,0.184243 -0.13483,0.251658 -0.299621,0.149811 -0.164792,-0.101847 -0.299622,-0.01992 -0.299622,0.182065 0,0.201983 -0.08587,0.281376 -0.190812,0.176429 -0.205126,-0.205126 -15.247458,7.395325 -15.978049,8.073242 -0.536538,0.49786 -0.31362,0.51518 0.793753,0.06168 z M 129.73652,2.458076 c 4.16075,-0.285471 6.51872,-0.439905 8.98864,-0.588708 1.31834,-0.07942 3.4082,-0.212296 4.64414,-0.295271 1.23593,-0.08297 3.15924,-0.196173 4.27401,-0.251551 l 2.02685,-0.100688 9.58348,-9.609885 c 8.39128,-8.414392 10.28435,-10.414601 9.35877,-9.888388 -0.12359,0.07027 -0.76404,0.374565 -1.4232,0.67622 -0.65917,0.301655 -1.2659,0.63637 -1.3483,0.743811 -0.0824,0.10744 -0.9925,0.571074 -2.02245,1.030298 -1.02994,0.459224 -1.87263,0.973841 -1.87263,1.143594 0,0.169752 -0.0852,0.223474 -0.18926,0.119382 -0.20122,-0.201219 -2.88733,1.251247 -3.05726,1.653157 -0.0553,0.13073 -0.22381,0.161479 -0.37453,0.06833 -0.15071,-0.09315 -0.27403,-0.0041 -0.27403,0.19788 0,0.201983 -0.0852,0.282075 -0.18926,0.177982 -0.20122,-0.201219 -2.88733,1.251248 -3.05726,1.653157 -0.0553,0.13073 -0.22381,0.161479 -0.37453,0.06833 -0.15071,-0.09315 -0.27403,-0.02657 -0.27403,0.147944 0,0.174517 -0.10112,0.292631 -0.22472,0.262474 -0.36352,-0.0887 -3.07112,1.348648 -3.07112,1.630325 0,0.14168 -0.12396,0.180989 -0.27546,0.08735 -0.15151,-0.09364 -0.45488,-4.8e-4 -0.67415,0.207033 -0.21928,0.207504 -0.66834,0.424479 -0.99793,0.482167 -0.32958,0.05769 -0.8689,0.253338 -1.19848,0.434781 -0.32959,0.181443 -0.84538,0.370905 -1.14622,0.421027 -0.30084,0.05012 -0.84016,0.252476 -1.19849,0.449674 -0.35833,0.197198 -0.81795,0.386495 -1.02137,0.420661 -0.74804,0.125634 -17.3202,6.471918 -17.68233,6.771422 -0.20599,0.170367 -0.37453,0.209324 -0.37453,0.08657 0,-0.122752 -0.20224,-0.05534 -0.44943,0.14981 -0.24719,0.205148 -0.44943,0.284328 -0.44943,0.175957 0,-0.108372 -0.30337,-0.02854 -0.67415,0.177411 -0.37078,0.205949 -0.76404,0.37923 -0.8739,0.385069 -0.10986,0.0058 -0.30087,0.11174 -0.42446,0.235333 -0.1236,0.123594 -0.4382,0.229005 -0.69912,0.234245 -0.26092,0.0052 -0.74406,0.21679 -1.07364,0.470109 -0.54708,0.420484 -0.32537,0.446515 2.54678,0.299009 1.73031,-0.08886 4.22466,-0.235578 5.543,-0.326029 z"
       style="fill:#483e37;stroke-width:0.29962152" />
    <path
       inkscape:connector-curvature="0"
       id="path29"
       d="m 135.85592,-2.65359 13.90956,-5.23174 8.65552,-4.673868 c 4.76054,-2.570628 8.70194,-4.626043 8.75867,-4.567589 0.0567,0.05845 -3.82798,4.118122 -8.63268,9.021485 l -8.73583,8.915206 -13.58671,0.897399 c -7.4727,0.493569 -13.74228,0.891424 -13.9324,0.884122 -0.19013,-0.0073 5.91361,-2.367559 13.56387,-5.245015 z"
       style="fill:none;stroke-width:0.29962152" />
    <path
       inkscape:connector-curvature="0"
       id="path31"
       d="M 40.656271,4.807617 C 37.264712,2.525627 33.467848,-0.218185 20.73261,-9.590264 L 13.467848,-14.936527 11.4214,-22.370265 C 7.9823828,-34.862524 6.2734773,-41.272198 6.3590705,-41.357792 c 0.056554,-0.05655 3.1670025,3.958736 7.9244005,10.229636 5.791835,7.63443 8.148865,10.661177 9.338941,11.992477 0.423771,0.474059 1.085159,0.800098 20.370724,10.041982 7.632415,3.657548 15.426377,7.398257 17.319915,8.312685 1.893538,0.914428 4.289324,2.07124 5.323969,2.570693 1.034644,0.499452 1.864091,0.925177 1.843214,0.946054 -0.05881,0.05881 -2.534298,0.364248 -12.728624,1.57051 C 43.17951,5.793861 42.763291,5.841926 42.457119,5.841492 42.298123,5.841281 41.578444,5.428096 40.656271,4.807617 Z"
       style="fill:none;stroke:#000000;stroke-width:0.106;stroke-miterlimit:4;stroke-dasharray:none;stroke-opacity:1" />
    <path
       inkscape:connector-curvature="0"
       id="path33"
       d="m 79.480424,1.137122 c 0.174788,-0.07793 6.443326,-2.917358 13.930085,-6.309849 30.579411,-13.856515 45.409901,-20.586255 45.727961,-20.750323 0.18481,-0.09533 3.76002,-3.008902 7.94492,-6.474604 21.72229,-17.989217 33.76297,-27.861858 33.98034,-27.861858 0.1885,0 -8.52999,12.131277 -25.54825,35.548934 l -7.31978,10.07224 -0.63038,0.273389 c -0.34671,0.150363 -7.12056,3.022532 -15.053,6.382599 l -14.42262,6.109211 -7.22837,0.623061 C 89.978408,0.549965 80.952007,1.2885 79.904153,1.282823 79.195873,1.279023 79.176875,1.272453 79.480424,1.137122 Z"
       style="opacity:1;fill:none;fill-opacity:1;fill-rule:evenodd;stroke:none;stroke-width:0.10593221" />
    <path
       inkscape:connector-curvature="0"
       id="path35"
       d="M 55.327881,19.49847 C 50.492076,19.27516 43.34571,18.95102 39.447067,18.77816 l -7.08844,-0.31429 -1.157704,0.58061 c -0.636737,0.31933 -1.232443,0.56605 -1.323791,0.54826 -0.195646,-0.0381 -0.430179,-0.63062 -0.441615,-1.1157 -0.006,-0.25378 0.06076,-0.38693 0.259107,-0.51689 0.146941,-0.0963 1.398265,-0.56866 2.78072,-1.04972 3.238794,-1.127041 3.731775,-1.316745 3.731775,-1.436027 0,-0.05408 0.03575,-0.08853 0.07945,-0.07656 0.315271,0.08634 1.377329,-0.652721 3.578607,-2.490261 0.350784,-0.292821 0.430936,-0.30621 5.843506,-0.976114 3.018315,-0.373571 8.586361,-1.063576 12.373438,-1.533344 20.968681,-2.601061 35.475039,-4.350072 35.983519,-4.338481 0.427624,0.0097 -3.950264,2.157813 -13.208096,6.48072 -9.472095,4.422957 -16.155033,7.403657 -16.540795,7.377467 -0.108071,-0.007 -4.153061,-0.19605 -8.988866,-0.41936 z"
       style="fill:none;stroke-width:0.10593221" />
    <path
       inkscape:connector-curvature="0"
       id="path37"
       d="M 83.673574,15.547755 C 83.69785,15.52565 88.436992,13.124866 94.205,10.21268 l 10.48729,-5.294885 3.81356,-0.23328 c 2.09746,-0.128303 4.07574,-0.257036 4.39618,-0.286072 0.44667,-0.04047 0.5403,-0.02579 0.40122,0.06292 -0.1434,0.09147 -19.976724,7.581911 -23.282572,8.793119 -0.43697,0.160099 -2.01381,0.750622 -3.504088,1.312275 -2.446627,0.922079 -2.980698,1.106362 -2.843016,0.980995 z"
       style="fill:none;stroke-width:0.10593221" />
    <path
       inkscape:connector-curvature="0"
       id="path39"
       d="m 121.53829,2.673267 c 0.0598,-0.06047 6.4475,-2.488793 14.19491,-5.39627 l 14.08621,-5.286323 9.24854,-5.003317 c 5.0867,-2.751824 9.26859,-4.983272 9.29309,-4.958772 0.0245,0.0245 -4.12396,4.268397 -9.2188,9.430884 l -9.26334,9.386339 -0.66534,0.06195 c -0.36594,0.03407 -2.11926,0.156774 -3.89627,0.272667 -1.77701,0.115892 -6.52013,0.425917 -10.54026,0.688945 -4.02012,0.263028 -8.42955,0.549508 -9.79872,0.636623 -1.36918,0.08711 -2.72776,0.185125 -3.01907,0.217803 -0.3656,0.04101 -0.49599,0.02536 -0.42095,-0.050529 z"
       style="fill:none;stroke-width:0.10593221" />
  </g>
</svg>
